<?xml version="1.0" encoding="UTF-8"?>
<svg width="200" height="200" version="1.1" viewBox="0 0 52.917 52.917" xmlns="http://www.w3.org/2000/svg">
  <rect width="52.917" height="52.917" fill="#2e3e44"/>
  <g fill="#ccd4c4" stroke-width=".26458px">
    <path d="m6.9344 41.99h0.65969l0.72954 1.917 0.7373-1.917h0.65969l-0.95462 2.3982 0.94685 2.274 1.8627-4.7032h0.76059l-2.305 5.5104h-0.60537l-1.0943-2.6-1.1021 2.6h-0.60537l-2.2973-5.5104h0.75283l1.8704 4.7032 0.93909-2.274z"/>
    <path d="m14.21 47.547q-0.4579 0-0.8382-0.16298-0.38029-0.17074-0.65193-0.4579-0.27164-0.28716-0.42686-0.66745-0.14746-0.38806-0.14746-0.81492 0-0.42686 0.14746-0.80715 0.15522-0.38029 0.42686-0.66746 0.2794-0.28716 0.65969-0.45014 0.38029-0.17074 0.8382-0.17074t0.83044 0.17074q0.38029 0.17074 0.64417 0.4579 0.26388 0.2794 0.40358 0.65969 0.14746 0.37253 0.14746 0.77611 0 0.08537-0.0078 0.15522 0 0.06985-0.0078 0.10866h-3.3606q0.02328 0.30268 0.1397 0.55104 0.11642 0.24836 0.30268 0.42686 0.18627 0.1785 0.4191 0.2794 0.24059 0.1009 0.50447 0.1009 0.18627 0 0.36477-0.04657 0.1785-0.05433 0.33373-0.1397t0.27164-0.20955q0.12418-0.12418 0.18627-0.2794l0.58984 0.16298q-0.10089 0.22507-0.2794 0.41134-0.17074 0.18627-0.40358 0.32597-0.22507 0.13194-0.50447 0.20955-0.2794 0.07761-0.58208 0.07761zm1.3892-2.3749q-0.02328-0.28716-0.14746-0.52776-0.11642-0.24836-0.30268-0.4191-0.17851-0.17074-0.4191-0.26388-0.24059-0.10089-0.51223-0.10089-0.27164 0-0.51223 0.10089-0.24059 0.09313-0.42686 0.27164-0.17851 0.17074-0.29492 0.41134-0.10866 0.24059-0.13194 0.52776z"/>
    <path d="m17.01 47.469v-4.0513h0.68298v4.0513zm0-4.8119v-0.85372h0.68298v0.85372z"/>
    <path d="m20.895 47.268q-0.06209 0.03104-0.16298 0.07761-0.10089 0.0388-0.23283 0.08537-0.12418 0.0388-0.2794 0.06209-0.14746 0.03104-0.31044 0.03104-0.37253 0-0.64417-0.20179-0.27164-0.20955-0.27164-0.64417v-2.7241h-0.55104v-0.53552h0.55104v-1.3504h0.68298v1.3504h0.90805v0.53552h-0.90805v2.5146q0.01552 0.22507 0.14746 0.32597 0.13194 0.10089 0.31044 0.10089 0.20179 0 0.36477-0.06209 0.17074-0.06985 0.23283-0.10866z"/>
    <path d="m23.26 47.547q-0.4579 0-0.8382-0.16298-0.38029-0.17074-0.65193-0.4579-0.27164-0.28716-0.42686-0.66745-0.14746-0.38806-0.14746-0.81492 0-0.42686 0.14746-0.80715 0.15522-0.38029 0.42686-0.66746 0.2794-0.28716 0.65969-0.45014 0.38029-0.17074 0.8382-0.17074 0.4579 0 0.83044 0.17074 0.38029 0.17074 0.64417 0.4579 0.26388 0.2794 0.40358 0.65969 0.14746 0.37253 0.14746 0.77611 0 0.08537-0.0078 0.15522 0 0.06985-0.0078 0.10866h-3.3606q0.02328 0.30268 0.1397 0.55104 0.11642 0.24836 0.30268 0.42686 0.18627 0.1785 0.4191 0.2794 0.24059 0.1009 0.50447 0.1009 0.18627 0 0.36477-0.04657 0.17851-0.05433 0.33373-0.1397t0.27164-0.20955q0.12418-0.12418 0.18627-0.2794l0.58984 0.16298q-0.10089 0.22507-0.2794 0.41134-0.17074 0.18627-0.40358 0.32597-0.22507 0.13194-0.50447 0.20955-0.2794 0.07761-0.58208 0.07761zm1.3892-2.3749q-0.02328-0.28716-0.14746-0.52776-0.11642-0.24836-0.30268-0.4191-0.17851-0.17074-0.4191-0.26388-0.24059-0.10089-0.51223-0.10089-0.27164 0-0.51223 0.10089-0.24059 0.09313-0.42686 0.27164-0.17851 0.17074-0.29492 0.41134-0.10866 0.24059-0.13194 0.52776z"/>
    <path d="m28.202 44.016q-0.51223 0.01552-0.90805 0.26388-0.38806 0.24836-0.55104 0.69074v2.4991h-0.68298v-4.0513h0.63641v0.93909q0.20955-0.4191 0.55104-0.67522 0.34149-0.26388 0.72954-0.29492 0.07761 0 0.13194 0 0.05433 0 0.09313 0.0078z"/>
    <path d="m30.3 47.547q-0.48895 0-0.96238-0.14746-0.47343-0.15522-0.81492-0.44238l0.29492-0.4579q0.35701 0.27164 0.71402 0.41134 0.35701 0.13194 0.75283 0.13194 0.44238 0 0.6985-0.17074 0.26388-0.17851 0.26388-0.49671 0-0.14746-0.06985-0.24836-0.06985-0.10866-0.20955-0.18627-0.1397-0.07761-0.35701-0.1397t-0.50447-0.13194q-0.36477-0.09313-0.62865-0.1785-0.26388-0.08537-0.43462-0.20179-0.17074-0.11642-0.24836-0.2794-0.07761-0.16298-0.07761-0.40358 0-0.30268 0.11642-0.53552 0.12418-0.24059 0.33373-0.39582 0.20955-0.16298 0.48895-0.24059 0.28716-0.08537 0.61313-0.08537 0.4579 0 0.85372 0.14746t0.66745 0.38806l-0.31044 0.41134q-0.25612-0.22507-0.57432-0.33373-0.3182-0.11642-0.65193-0.11642-0.37253 0-0.63641 0.16298-0.25612 0.15522-0.25612 0.50447 0 0.1397 0.04657 0.23283 0.05433 0.09313 0.17074 0.16298 0.11642 0.06985 0.29492 0.12418 0.18627 0.05433 0.44238 0.11642 0.40358 0.09313 0.6985 0.19403 0.30268 0.09313 0.49671 0.22507 0.20179 0.13194 0.29492 0.31044 0.1009 0.1785 0.1009 0.43462 0 0.56656-0.43462 0.90029-0.43462 0.33373-1.1719 0.33373z"/>
    <path d="m33.754 47.547q-0.28716 0-0.53552-0.09313-0.24836-0.10089-0.43462-0.27164-0.1785-0.17074-0.28716-0.39582-0.1009-0.23283-0.1009-0.50447 0-0.2794 0.12418-0.50447 0.12418-0.23283 0.34925-0.39582 0.23283-0.16298 0.54328-0.25612 0.3182-0.09313 0.69074-0.09313 0.29492 0 0.5976 0.05433t0.53552 0.14746v-0.32597q0-0.49671-0.2794-0.77611-0.2794-0.28716-0.79163-0.28716-0.61313 0-1.2883 0.47343l-0.22507-0.44238q0.78387-0.52776 1.5755-0.52776 0.79939 0 1.2418 0.42686 0.45014 0.42686 0.45014 1.203v1.6531q0 0.2406 0.21731 0.24836v0.58984q-0.10866 0.01552-0.1785 0.02328-0.06985 0.0078-0.14746 0.0078-0.20179 0-0.32597-0.11642-0.11642-0.12418-0.1397-0.29492l-0.01552-0.28716q-0.27164 0.36477-0.69074 0.5588-0.41134 0.18627-0.88476 0.18627zm0.1785-0.51223q0.36477 0 0.67522-0.13194 0.3182-0.1397 0.48119-0.36477 0.14746-0.14746 0.14746-0.30268v-0.5976q-0.49671-0.19403-1.0322-0.19403-0.51223 0-0.8382 0.21731-0.3182 0.21731-0.3182 0.56656 0 0.17074 0.06209 0.3182 0.06985 0.14746 0.18627 0.25612 0.12418 0.10866 0.28716 0.17074 0.16298 0.06209 0.34925 0.06209z"/>
    <path d="m38.634 47.516q-0.41134 0-0.76059-0.17074-0.34149-0.17074-0.58984-0.4579-0.24836-0.28716-0.38806-0.65969-0.13194-0.37253-0.13194-0.77611 0-0.42686 0.13194-0.80715 0.1397-0.38806 0.38806-0.67522 0.24836-0.28716 0.58984-0.45014 0.34925-0.17074 0.76835-0.17074 0.51223 0 0.88477 0.24836 0.37253 0.24836 0.62865 0.62865v-0.80715h0.60536v4.0047q0 0.43462-0.16298 0.76059-0.16298 0.33373-0.44238 0.5588-0.2794 0.22507-0.65969 0.34149-0.37253 0.11642-0.79939 0.11642-0.69074 0-1.1254-0.24059-0.42686-0.23283-0.71402-0.65193l0.39582-0.34925q0.24059 0.35701 0.62089 0.53552 0.38029 0.17851 0.82268 0.17851 0.2794 0 0.52776-0.07761 0.25612-0.07761 0.44238-0.23283 0.18627-0.15522 0.29492-0.38806 0.11642-0.23283 0.11642-0.55104v-0.71402q-0.11642 0.18627-0.2794 0.34149-0.15522 0.14746-0.34149 0.25612-0.18627 0.10089-0.39582 0.15522-0.20955 0.05433-0.42686 0.05433zm0.20955-0.5588q0.21731 0 0.4191-0.07761 0.20179-0.07761 0.37253-0.20179 0.17074-0.13194 0.28716-0.29492 0.11642-0.16298 0.15522-0.33373v-1.1642q-0.08537-0.20955-0.22507-0.38029-0.13194-0.17074-0.30268-0.29492-0.17074-0.13194-0.37253-0.20179-0.19403-0.06985-0.39582-0.06985-0.31044 0-0.5588 0.13194-0.24059 0.13194-0.41134 0.34925-0.17074 0.21731-0.26388 0.49671-0.09313 0.27164-0.09313 0.55104 0 0.30268 0.10866 0.57432 0.10866 0.27164 0.29492 0.47343t0.43462 0.32597q0.25612 0.11642 0.55104 0.11642z"/>
    <path d="m43.648 47.547q-0.4579 0-0.8382-0.16298-0.38029-0.17074-0.65193-0.4579-0.27164-0.28716-0.42686-0.66745-0.14746-0.38806-0.14746-0.81492 0-0.42686 0.14746-0.80715 0.15522-0.38029 0.42686-0.66746 0.2794-0.28716 0.65969-0.45014 0.38029-0.17074 0.8382-0.17074t0.83044 0.17074q0.38029 0.17074 0.64417 0.4579 0.26388 0.2794 0.40358 0.65969 0.14746 0.37253 0.14746 0.77611 0 0.08537-0.0078 0.15522 0 0.06985-0.0078 0.10866h-3.3606q0.02328 0.30268 0.1397 0.55104 0.11642 0.24836 0.30268 0.42686 0.18627 0.1785 0.4191 0.2794 0.24059 0.1009 0.50447 0.1009 0.18627 0 0.36477-0.04657 0.1785-0.05433 0.33373-0.1397t0.27164-0.20955q0.12418-0.12418 0.18627-0.2794l0.58984 0.16298q-0.1009 0.22507-0.2794 0.41134-0.17074 0.18627-0.40358 0.32597-0.22507 0.13194-0.50447 0.20955-0.2794 0.07761-0.58208 0.07761zm1.3892-2.3749q-0.02328-0.28716-0.14746-0.52776-0.11642-0.24836-0.30268-0.4191-0.1785-0.17074-0.4191-0.26388-0.2406-0.10089-0.51223-0.10089-0.27164 0-0.51223 0.10089-0.24059 0.09313-0.42686 0.27164-0.1785 0.17074-0.29492 0.41134-0.10866 0.24059-0.13194 0.52776z"/>
    <path d="m48.59 44.016q-0.51223 0.01552-0.90805 0.26388-0.38806 0.24836-0.55104 0.69074v2.4991h-0.68298v-4.0513h0.63641v0.93909q0.20955-0.4191 0.55104-0.67522 0.34149-0.26388 0.72954-0.29492 0.07761 0 0.13194 0 0.05433 0 0.09313 0.0078z"/>
  </g>
  <g transform="translate(21.299 33.524)" fill-rule="evenodd" shape-rendering="auto" stroke="#ccd4c4">
    <path d="m12.354 4.0614-0.87001-0.34984 10.926-27.17 0.87001 0.34984z" color="#000000" color-rendering="auto" dominant-baseline="auto" fill="#335050" image-rendering="auto" solid-color="#000000" stop-color="#000000" stroke-width=".18609" style="font-feature-settings:normal;font-variant-alternates:normal;font-variant-caps:normal;font-variant-east-asian:normal;font-variant-ligatures:normal;font-variant-numeric:normal;font-variant-position:normal;font-variation-settings:normal;inline-size:0;isolation:auto;mix-blend-mode:normal;shape-margin:0;shape-padding:0;text-decoration-color:#000000;text-decoration-line:none;text-decoration-style:solid;text-indent:0;text-orientation:mixed;text-transform:none;white-space:normal"/>
    <path d="m23.427-20.463-0.89142-2.0895-2.0907 0.89019 3.5904-4.6191z" color="#000000" color-rendering="auto" dominant-baseline="auto" fill="#557770" image-rendering="auto" solid-color="#000000" stop-color="#000000" stroke-width=".12562" style="font-feature-settings:normal;font-variant-alternates:normal;font-variant-caps:normal;font-variant-east-asian:normal;font-variant-ligatures:normal;font-variant-numeric:normal;font-variant-position:normal;font-variation-settings:normal;inline-size:0;isolation:auto;mix-blend-mode:normal;shape-margin:0;shape-padding:0;text-decoration-color:#000000;text-decoration-line:none;text-decoration-style:solid;text-indent:0;text-orientation:mixed;text-transform:none;white-space:normal"/>
    <path d="m11.376 5.3897c-0.54305-0.21837-0.80814-0.83981-0.58978-1.3829 0.21837-0.54305 0.83981-0.80815 1.3829-0.58978 0.54305 0.21837 0.80815 0.83981 0.58978 1.3829-0.21837 0.54305-0.83981 0.80815-1.3829 0.58978z" color="#000000" color-rendering="auto" dominant-baseline="auto" fill="#84a88a" image-rendering="auto" solid-color="#000000" stop-color="#000000" stroke-width=".18609" style="font-feature-settings:normal;font-variant-alternates:normal;font-variant-caps:normal;font-variant-east-asian:normal;font-variant-ligatures:normal;font-variant-numeric:normal;font-variant-position:normal;font-variation-settings:normal;inline-size:0;isolation:auto;mix-blend-mode:normal;shape-margin:0;shape-padding:0;text-decoration-color:#000000;text-decoration-line:none;text-decoration-style:solid;text-indent:0;text-orientation:mixed;text-transform:none;white-space:normal"/>
    <path d="m0.060181-25.939-0.87001 0.34984 10.926 27.17 0.87001-0.34984z" color="#000000" color-rendering="auto" dominant-baseline="auto" fill="#335050" image-rendering="auto" solid-color="#000000" stop-color="#000000" stroke-width=".18609" style="font-feature-settings:normal;font-variant-alternates:normal;font-variant-caps:normal;font-variant-east-asian:normal;font-variant-ligatures:normal;font-variant-numeric:normal;font-variant-position:normal;font-variation-settings:normal;inline-size:0;isolation:auto;mix-blend-mode:normal;shape-margin:0;shape-padding:0;text-decoration-color:#000000;text-decoration-line:none;text-decoration-style:solid;text-indent:0;text-orientation:mixed;text-transform:none;white-space:normal"/>
    <path d="m11.133-1.4143-0.89142 2.0895-2.0907-0.89019 3.5904 4.6191z" color="#000000" color-rendering="auto" dominant-baseline="auto" fill="#557770" image-rendering="auto" solid-color="#000000" stop-color="#000000" stroke-width=".12562" style="font-feature-settings:normal;font-variant-alternates:normal;font-variant-caps:normal;font-variant-east-asian:normal;font-variant-ligatures:normal;font-variant-numeric:normal;font-variant-position:normal;font-variation-settings:normal;inline-size:0;isolation:auto;mix-blend-mode:normal;shape-margin:0;shape-padding:0;text-decoration-color:#000000;text-decoration-line:none;text-decoration-style:solid;text-indent:0;text-orientation:mixed;text-transform:none;white-space:normal"/>
    <path d="m-0.61918-26.424c-0.54305 0.21837-0.80815 0.83981-0.58978 1.3829 0.21837 0.54305 0.83981 0.80815 1.3829 0.58978 0.54305-0.21837 0.80814-0.83981 0.58978-1.3829-0.21837-0.54305-0.83981-0.80815-1.3829-0.58978z" color="#000000" color-rendering="auto" dominant-baseline="auto" fill="#84a88a" image-rendering="auto" solid-color="#000000" stop-color="#000000" stroke-width=".18609" style="font-feature-settings:normal;font-variant-alternates:normal;font-variant-caps:normal;font-variant-east-asian:normal;font-variant-ligatures:normal;font-variant-numeric:normal;font-variant-position:normal;font-variation-settings:normal;inline-size:0;isolation:auto;mix-blend-mode:normal;shape-margin:0;shape-padding:0;text-decoration-color:#000000;text-decoration-line:none;text-decoration-style:solid;text-indent:0;text-orientation:mixed;text-transform:none;white-space:normal"/>
    <path d="m-0.069681 4.0614-0.87001-0.34984 10.926-27.17 0.87001 0.34984z" color="#000000" color-rendering="auto" dominant-baseline="auto" fill="#335050" image-rendering="auto" solid-color="#000000" stop-color="#000000" stroke-width=".18609" style="font-feature-settings:normal;font-variant-alternates:normal;font-variant-caps:normal;font-variant-east-asian:normal;font-variant-ligatures:normal;font-variant-numeric:normal;font-variant-position:normal;font-variation-settings:normal;inline-size:0;isolation:auto;mix-blend-mode:normal;shape-margin:0;shape-padding:0;text-decoration-color:#000000;text-decoration-line:none;text-decoration-style:solid;text-indent:0;text-orientation:mixed;text-transform:none;white-space:normal"/>
    <path d="m11.003-20.463-0.89142-2.0895-2.0907 0.89019 3.5904-4.6191z" color="#000000" color-rendering="auto" dominant-baseline="auto" fill="#557770" image-rendering="auto" solid-color="#000000" stop-color="#000000" stroke-width=".12562" style="font-feature-settings:normal;font-variant-alternates:normal;font-variant-caps:normal;font-variant-east-asian:normal;font-variant-ligatures:normal;font-variant-numeric:normal;font-variant-position:normal;font-variation-settings:normal;inline-size:0;isolation:auto;mix-blend-mode:normal;shape-margin:0;shape-padding:0;text-decoration-color:#000000;text-decoration-line:none;text-decoration-style:solid;text-indent:0;text-orientation:mixed;text-transform:none;white-space:normal"/>
    <path d="m-1.0471 5.3897c-0.54305-0.21837-0.80814-0.83981-0.58978-1.3829 0.21837-0.54305 0.83981-0.80815 1.3829-0.58978 0.54305 0.21837 0.80815 0.83981 0.58978 1.3829-0.21837 0.54305-0.83981 0.80815-1.3829 0.58978z" color="#000000" color-rendering="auto" dominant-baseline="auto" fill="#84a88a" image-rendering="auto" solid-color="#000000" stop-color="#000000" stroke-width=".18609" style="font-feature-settings:normal;font-variant-alternates:normal;font-variant-caps:normal;font-variant-east-asian:normal;font-variant-ligatures:normal;font-variant-numeric:normal;font-variant-position:normal;font-variation-settings:normal;inline-size:0;isolation:auto;mix-blend-mode:normal;shape-margin:0;shape-padding:0;text-decoration-color:#000000;text-decoration-line:none;text-decoration-style:solid;text-indent:0;text-orientation:mixed;text-transform:none;white-space:normal"/>
    <path d="m-12.363-25.939-0.87001 0.34984 10.926 27.17 0.87001-0.34984z" color="#000000" color-rendering="auto" dominant-baseline="auto" fill="#335050" image-rendering="auto" solid-color="#000000" stop-color="#000000" stroke-width=".18609" style="font-feature-settings:normal;font-variant-alternates:normal;font-variant-caps:normal;font-variant-east-asian:normal;font-variant-ligatures:normal;font-variant-numeric:normal;font-variant-position:normal;font-variation-settings:normal;inline-size:0;isolation:auto;mix-blend-mode:normal;shape-margin:0;shape-padding:0;text-decoration-color:#000000;text-decoration-line:none;text-decoration-style:solid;text-indent:0;text-orientation:mixed;text-transform:none;white-space:normal"/>
    <path d="m-1.2899-1.4143-0.89142 2.0895-2.0907-0.89019 3.5904 4.6191z" color="#000000" color-rendering="auto" dominant-baseline="auto" fill="#557770" image-rendering="auto" solid-color="#000000" stop-color="#000000" stroke-width=".12562" style="font-feature-settings:normal;font-variant-alternates:normal;font-variant-caps:normal;font-variant-east-asian:normal;font-variant-ligatures:normal;font-variant-numeric:normal;font-variant-position:normal;font-variation-settings:normal;inline-size:0;isolation:auto;mix-blend-mode:normal;shape-margin:0;shape-padding:0;text-decoration-color:#000000;text-decoration-line:none;text-decoration-style:solid;text-indent:0;text-orientation:mixed;text-transform:none;white-space:normal"/>
    <path d="m-13.042-26.424c-0.54305 0.21837-0.80814 0.83981-0.58978 1.3829 0.21837 0.54305 0.83981 0.80815 1.3829 0.58978 0.54305-0.21837 0.80814-0.83981 0.58978-1.3829-0.21837-0.54305-0.83981-0.80815-1.3829-0.58978z" color="#000000" color-rendering="auto" dominant-baseline="auto" fill="#84a88a" image-rendering="auto" solid-color="#000000" stop-color="#000000" stroke-width=".18609" style="font-feature-settings:normal;font-variant-alternates:normal;font-variant-caps:normal;font-variant-east-asian:normal;font-variant-ligatures:normal;font-variant-numeric:normal;font-variant-position:normal;font-variation-settings:normal;inline-size:0;isolation:auto;mix-blend-mode:normal;shape-margin:0;shape-padding:0;text-decoration-color:#000000;text-decoration-line:none;text-decoration-style:solid;text-indent:0;text-orientation:mixed;text-transform:none;white-space:normal"/>
  </g>
</svg>
